<svg xmlns="http://www.w3.org/2000/svg" width="1020.0" height="924.5"><defs><marker id="arrow" refX="5" refY="5" markerUnits="strokeWidth" markerWidth="10" markerHeight="10" orient="auto"><path d="M 0 0 L 10 5 L 0 10 L 2 5 Z " fill="#222"/></marker></defs><g id="edges"><polyline stroke="#222" stroke-width="1.5" points="642.0 635.8333333333334 684.0 635.8333333333334 684.0 889.5 694.0 889.5" marker-end="url(#arrow)" fill="none"/><circle stroke="none" cx="684.0" cy="635.8333333333334" r="2" fill="#888"/><circle stroke="none" cx="684.0" cy="889.5" r="2" fill="#888"/><circle cx="684.0" cy="635.8333333333334" r="2.5" fill="#444"/><polyline stroke="#222" stroke-width="1.5" points="642.0 635.8333333333334 684.0 635.8333333333334 684.0 560.5 694.0 560.5" marker-end="url(#arrow)" fill="none"/><circle stroke="none" cx="684.0" cy="635.8333333333334" r="2" fill="#888"/><circle stroke="none" cx="684.0" cy="560.5" r="2" fill="#888"/><circle cx="684.0" cy="560.5" r="2.5" fill="#444"/><polyline stroke="#222" stroke-width="1.5" points="642.0 635.8333333333334 684.0 635.8333333333334 684.0 468.8333333333333 696.5 468.8333333333333" marker-end="url(#arrow)" fill="none"/><circle stroke="none" cx="684.0" cy="635.8333333333334" r="2" fill="#888"/><circle stroke="none" cx="684.0" cy="468.8333333333333" r="2" fill="#888"/><polyline stroke="#222" stroke-width="1.5" points="642.0 635.8333333333334 684.0 635.8333333333334 684.0 797.8333333333333 696.5 797.8333333333334" marker-end="url(#arrow)" fill="none"/><circle stroke="none" cx="684.0" cy="635.8333333333334" r="2" fill="#888"/><circle stroke="none" cx="684.0" cy="797.8333333333333" r="2" fill="#888"/><circle cx="684.0" cy="797.8333333333333" r="2.5" fill="#444"/><polyline stroke="#222" stroke-width="1.5" points="642.0 635.8333333333334 684.0 635.8333333333334 684.0 716.8333333333333 696.5 716.8333333333334" marker-end="url(#arrow)" fill="none"/><circle stroke="none" cx="684.0" cy="635.8333333333334" r="2" fill="#888"/><circle stroke="none" cx="684.0" cy="716.8333333333333" r="2" fill="#888"/><circle cx="684.0" cy="716.8333333333333" r="2.5" fill="#444"/><polyline stroke="#222" stroke-width="1.5" points="642.0 635.8333333333334 696.5 635.8333333333334" marker-end="url(#arrow)" fill="none"/><polyline stroke="#222" stroke-width="1.5" points="776.0 889.5 786.0 889.5 786.0 477.0 796.0 477.0" marker-end="url(#arrow)" fill="none"/><circle stroke="none" cx="786.0" cy="889.5" r="2" fill="#888"/><circle stroke="none" cx="786.0" cy="477.0" r="2" fill="#888"/><circle cx="786.0" cy="477.0" r="2.5" fill="#444"/><polyline stroke="#222" stroke-width="1.5" points="776.0 560.5 786.0 560.5 786.0 477.0 796.0 477.0" marker-end="url(#arrow)" fill="none"/><circle stroke="none" cx="786.0" cy="560.5" r="2" fill="#888"/><circle stroke="none" cx="786.0" cy="477.0" r="2" fill="#888"/><circle cx="786.0" cy="560.5" r="2.5" fill="#444"/><polyline stroke="#222" stroke-width="1.5" points="773.5 477.0 796.0 477.0" marker-end="url(#arrow)" fill="none"/><polyline stroke="#222" stroke-width="1.5" points="773.5 806.0 786.0 806.0 786.0 477.0 796.0 477.0" marker-end="url(#arrow)" fill="none"/><circle stroke="none" cx="786.0" cy="806.0" r="2" fill="#888"/><circle stroke="none" cx="786.0" cy="477.0" r="2" fill="#888"/><circle cx="786.0" cy="806.0" r="2.5" fill="#444"/><polyline stroke="#222" stroke-width="1.5" points="773.5 725.0 786.0 725.0 786.0 477.0 796.0 477.0" marker-end="url(#arrow)" fill="none"/><circle stroke="none" cx="786.0" cy="725.0" r="2" fill="#888"/><circle stroke="none" cx="786.0" cy="477.0" r="2" fill="#888"/><circle cx="786.0" cy="725.0" r="2.5" fill="#444"/><polyline stroke="#222" stroke-width="1.5" points="773.5 644.0 786.0 644.0 786.0 477.0 796.0 477.0" marker-end="url(#arrow)" fill="none"/><circle stroke="none" cx="786.0" cy="644.0" r="2" fill="#888"/><circle stroke="none" cx="786.0" cy="477.0" r="2" fill="#888"/><circle cx="786.0" cy="644.0" r="2.5" fill="#444"/><polyline stroke="#222" stroke-width="1.5" points="80.0 557.0 90.0 557.0 90.0 477.0 100.0 477.0" marker-end="url(#arrow)" fill="none"/><circle stroke="none" cx="90.0" cy="557.0" r="2" fill="#888"/><circle stroke="none" cx="90.0" cy="477.0" r="2" fill="#888"/><circle cx="90.0" cy="477.0" r="2.5" fill="#444"/><polyline stroke="#222" stroke-width="1.5" points="397.0 477.0 417.0 477.0" marker-end="url(#arrow)" fill="none"/><polyline stroke="#222" stroke-width="1.5" points="191.0 528.5 343.0 528.5 343.0 503.0" marker-end="url(#arrow)" fill="none"/><circle stroke="none" cx="343.0" cy="528.5" r="2" fill="#888"/><polyline stroke="#222" stroke-width="1.5" points="80.0 477.0 100.0 477.0" marker-end="url(#arrow)" fill="none"/><polyline stroke="#222" stroke-width="1.5" points="137.0 477.0 314.0 477.0" marker-end="url(#arrow)" fill="none"/><polyline stroke="#222" stroke-width="1.5" points="137.0 477.0 155.0 477.0 155.0 528.5 165.0 528.5" marker-end="url(#arrow)" fill="none"/><circle stroke="none" cx="155.0" cy="477.0" r="2" fill="#888"/><circle stroke="none" cx="155.0" cy="528.5" r="2" fill="#888"/><circle cx="155.0" cy="477.0" r="2.5" fill="#444"/><polyline stroke="#222" stroke-width="1.5" points="515.0 184.0 684.0 184.0" marker-end="url(#arrow)" fill="none"/><polyline stroke="#222" stroke-width="1.5" points="515.0 184.0 525.0 184.0 525.0 235.5 535.0 235.5" marker-end="url(#arrow)" fill="none"/><circle stroke="none" cx="525.0" cy="184.0" r="2" fill="#888"/><circle stroke="none" cx="525.0" cy="235.5" r="2" fill="#888"/><circle cx="525.0" cy="184.0" r="2.5" fill="#444"/><polyline stroke="#222" stroke-width="1.5" points="767.0 184.0 787.0 184.0" marker-end="url(#arrow)" fill="none"/><polyline stroke="#222" stroke-width="1.5" points="561.0 235.5 713.0 235.5 713.0 210.0" marker-end="url(#arrow)" fill="none"/><circle stroke="none" cx="713.0" cy="235.5" r="2" fill="#888"/><polyline stroke="#222" stroke-width="1.5" points="80.0 316.0 256.0 316.0" marker-end="url(#arrow)" fill="none"/><polyline stroke="#222" stroke-width="1.5" points="80.0 316.0 90.0 316.0 90.0 367.5 100.0 367.5" marker-end="url(#arrow)" fill="none"/><circle stroke="none" cx="90.0" cy="316.0" r="2" fill="#888"/><circle stroke="none" cx="90.0" cy="367.5" r="2" fill="#888"/><circle cx="90.0" cy="316.0" r="2.5" fill="#444"/><polyline stroke="#222" stroke-width="1.5" points="339.0 316.0 359.0 316.0" marker-end="url(#arrow)" fill="none"/><polyline stroke="#222" stroke-width="1.5" points="126.0 367.5 285.0 367.5 285.0 342.0" marker-end="url(#arrow)" fill="none"/><circle stroke="none" cx="285.0" cy="367.5" r="2" fill="#888"/><polyline stroke="#222" stroke-width="1.5" points="89.0 55.0 109.0 55.0" marker-end="url(#arrow)" fill="none"/><polyline stroke="#222" stroke-width="1.5" points="288.0 55.0 308.0 55.0" marker-end="url(#arrow)" fill="none"/><polyline stroke="#222" stroke-width="1.5" points="603.0 396.5 613.0 396.5 613.0 316.5 623.0 316.5" marker-end="url(#arrow)" fill="none"/><circle stroke="none" cx="613.0" cy="396.5" r="2" fill="#888"/><circle stroke="none" cx="613.0" cy="316.5" r="2" fill="#888"/><circle cx="613.0" cy="316.5" r="2.5" fill="#444"/><polyline stroke="#222" stroke-width="1.5" points="920.0 316.5 940.0 316.5" marker-end="url(#arrow)" fill="none"/><polyline stroke="#222" stroke-width="1.5" points="714.0 368.0 866.0 368.0 866.0 342.5" marker-end="url(#arrow)" fill="none"/><circle stroke="none" cx="866.0" cy="368.0" r="2" fill="#888"/><polyline stroke="#222" stroke-width="1.5" points="603.0 316.5 623.0 316.5" marker-end="url(#arrow)" fill="none"/><polyline stroke="#222" stroke-width="1.5" points="660.0 316.5 837.0 316.5" marker-end="url(#arrow)" fill="none"/><polyline stroke="#222" stroke-width="1.5" points="660.0 316.5 678.0 316.5 678.0 368.0 688.0 368.0" marker-end="url(#arrow)" fill="none"/><circle stroke="none" cx="678.0" cy="316.5" r="2" fill="#888"/><circle stroke="none" cx="678.0" cy="368.0" r="2" fill="#888"/><circle cx="678.0" cy="316.5" r="2.5" fill="#444"/><polyline stroke="#222" stroke-width="1.5" points="478.0 52.0 647.0 52.0" marker-end="url(#arrow)" fill="none"/><polyline stroke="#222" stroke-width="1.5" points="478.0 52.0 488.0 52.0 488.0 103.5 498.0 103.5" marker-end="url(#arrow)" fill="none"/><circle stroke="none" cx="488.0" cy="52.0" r="2" fill="#888"/><circle stroke="none" cx="488.0" cy="103.5" r="2" fill="#888"/><circle cx="488.0" cy="52.0" r="2.5" fill="#444"/><polyline stroke="#222" stroke-width="1.5" points="730.0 52.0 750.0 52.0" marker-end="url(#arrow)" fill="none"/><polyline stroke="#222" stroke-width="1.5" points="524.0 103.5 676.0 103.5 676.0 78.0" marker-end="url(#arrow)" fill="none"/><circle stroke="none" cx="676.0" cy="103.5" r="2" fill="#888"/><polyline stroke="#222" stroke-width="1.5" points="80.0 184.0 256.0 184.0" marker-end="url(#arrow)" fill="none"/><polyline stroke="#222" stroke-width="1.5" points="80.0 184.0 90.0 184.0 90.0 235.5 100.0 235.5" marker-end="url(#arrow)" fill="none"/><circle stroke="none" cx="90.0" cy="184.0" r="2" fill="#888"/><circle stroke="none" cx="90.0" cy="235.5" r="2" fill="#888"/><circle cx="90.0" cy="184.0" r="2.5" fill="#444"/><polyline stroke="#222" stroke-width="1.5" points="339.0 184.0 359.0 184.0" marker-end="url(#arrow)" fill="none"/><polyline stroke="#222" stroke-width="1.5" points="126.0 235.5 285.0 235.5 285.0 210.0" marker-end="url(#arrow)" fill="none"/><circle stroke="none" cx="285.0" cy="235.5" r="2" fill="#888"/></g><g id="nodes"><rect stroke="black" x="804.0" y="456.5" width="41.0" height="41.0" rx="2" fill="lightblue"/><rect stroke="black" x="593.0" y="615.3333333333334" width="41.0" height="41.0" rx="2" fill="lightblue"/><rect stroke="black" x="702.0" y="866.5" width="66.0" height="46.0" rx="2" fill="lightblue"/><rect stroke="black" x="702.0" y="537.5" width="66.0" height="46.0" rx="2" fill="lightblue"/><rect stroke="black" x="704.5" y="456.5" width="61.0" height="41.0" rx="2" fill="lightblue"/><rect stroke="black" x="704.5" y="785.5" width="61.0" height="41.0" rx="2" fill="lightblue"/><rect stroke="black" x="704.5" y="704.5" width="61.0" height="41.0" rx="2" fill="lightblue"/><rect stroke="black" x="704.5" y="623.5" width="61.0" height="41.0" rx="2" fill="lightblue"/><rect stroke="black" x="12.0" y="537.0" width="60.0" height="40.0" rx="2" fill="lightblue"/><rect stroke="black" x="322.0" y="459.0" width="67.0" height="36.0" rx="2" fill="lightblue"/><rect stroke="black" x="173.0" y="508.0" width="10.0" height="41.0" rx="2" fill="lightblue"/><rect stroke="black" x="12.0" y="457.0" width="60.0" height="40.0" rx="2" fill="lightblue"/><rect stroke="black" x="108.0" y="456.5" width="21.0" height="41.0" rx="2" fill="lightblue"/><rect stroke="black" x="425.0" y="457.0" width="60.0" height="40.0" rx="2" fill="lightblue"/><rect stroke="black" x="447.0" y="164.0" width="60.0" height="40.0" rx="2" fill="lightblue"/><rect stroke="black" x="692.0" y="166.0" width="67.0" height="36.0" rx="2" fill="lightblue"/><rect stroke="black" x="543.0" y="215.0" width="10.0" height="41.0" rx="2" fill="lightblue"/><rect stroke="black" x="12.0" y="296.0" width="60.0" height="40.0" rx="2" fill="lightblue"/><rect stroke="black" x="264.0" y="298.0" width="67.0" height="36.0" rx="2" fill="lightblue"/><rect stroke="black" x="108.0" y="347.0" width="10.0" height="41.0" rx="2" fill="lightblue"/><rect stroke="black" x="795.0" y="164.0" width="60.0" height="40.0" rx="2" fill="lightblue"/><rect stroke="black" x="367.0" y="296.0" width="60.0" height="40.0" rx="2" fill="lightblue"/><rect stroke="black" x="20.0" y="34.5" width="61.0" height="41.0" rx="2" fill="lightblue"/><rect stroke="black" x="219.0" y="34.5" width="61.0" height="41.0" rx="2" fill="lightblue"/><rect stroke="black" x="117.0" y="32.0" width="66.0" height="46.0" rx="2" fill="lightblue"/><rect stroke="black" x="316.0" y="32.0" width="66.0" height="46.0" rx="2" fill="lightblue"/><rect stroke="black" x="535.0" y="376.5" width="60.0" height="40.0" rx="2" fill="lightblue"/><rect stroke="black" x="845.0" y="298.5" width="67.0" height="36.0" rx="2" fill="lightblue"/><rect stroke="black" x="696.0" y="347.5" width="10.0" height="41.0" rx="2" fill="lightblue"/><rect stroke="black" x="948.0" y="296.5" width="60.0" height="40.0" rx="2" fill="lightblue"/><rect stroke="black" x="535.0" y="296.5" width="60.0" height="40.0" rx="2" fill="lightblue"/><rect stroke="black" x="631.0" y="296.0" width="21.0" height="41.0" rx="2" fill="lightblue"/><rect stroke="black" x="410.0" y="32.0" width="60.0" height="40.0" rx="2" fill="lightblue"/><rect stroke="black" x="655.0" y="34.0" width="67.0" height="36.0" rx="2" fill="lightblue"/><rect stroke="black" x="506.0" y="83.0" width="10.0" height="41.0" rx="2" fill="lightblue"/><rect stroke="black" x="758.0" y="32.0" width="60.0" height="40.0" rx="2" fill="lightblue"/><rect stroke="black" x="12.0" y="164.0" width="60.0" height="40.0" rx="2" fill="lightblue"/><rect stroke="black" x="264.0" y="166.0" width="67.0" height="36.0" rx="2" fill="lightblue"/><rect stroke="black" x="108.0" y="215.0" width="10.0" height="41.0" rx="2" fill="lightblue"/><rect stroke="black" x="367.0" y="164.0" width="60.0" height="40.0" rx="2" fill="lightblue"/></g><g id="ports"><rect stroke="#111" x="796.0" y="473.0" width="8.0" height="8.0" fill="#444"/><rect stroke="#111" x="634.0" y="631.8333333333334" width="8.0" height="8.0" fill="#444"/><rect stroke="#111" x="585.0" y="623.6666666666667" width="8.0" height="8.0" fill="#444"/><rect stroke="#111" x="585.0" y="640.0" width="8.0" height="8.0" fill="#444"/><rect stroke="#111" x="601.3333333333334" y="656.3333333333334" width="8.0" height="8.0" fill="#444"/><rect stroke="#111" x="617.6666666666666" y="656.3333333333334" width="8.0" height="8.0" fill="#444"/><rect stroke="#111" x="694.0" y="885.5" width="8.0" height="8.0" fill="#444"/><rect stroke="#111" x="768.0" y="885.5" width="8.0" height="8.0" fill="#444"/><rect stroke="#111" x="694.0" y="556.5" width="8.0" height="8.0" fill="#444"/><rect stroke="#111" x="768.0" y="556.5" width="8.0" height="8.0" fill="#444"/><rect stroke="#111" x="765.5" y="473.0" width="8.0" height="8.0" fill="#444"/><rect stroke="#111" x="696.5" y="464.8333333333333" width="8.0" height="8.0" fill="#444"/><rect stroke="#111" x="696.5" y="481.1666666666667" width="8.0" height="8.0" fill="#444"/><rect stroke="#111" x="765.5" y="802.0" width="8.0" height="8.0" fill="#444"/><rect stroke="#111" x="696.5" y="793.8333333333334" width="8.0" height="8.0" fill="#444"/><rect stroke="#111" x="696.5" y="810.1666666666666" width="8.0" height="8.0" fill="#444"/><rect stroke="#111" x="765.5" y="721.0" width="8.0" height="8.0" fill="#444"/><rect stroke="#111" x="696.5" y="712.8333333333334" width="8.0" height="8.0" fill="#444"/><rect stroke="#111" x="696.5" y="729.1666666666666" width="8.0" height="8.0" fill="#444"/><rect stroke="#111" x="765.5" y="640.0" width="8.0" height="8.0" fill="#444"/><rect stroke="#111" x="696.5" y="631.8333333333334" width="8.0" height="8.0" fill="#444"/><rect stroke="#111" x="696.5" y="648.1666666666666" width="8.0" height="8.0" fill="#444"/><rect stroke="#111" x="72.0" y="553.0" width="8.0" height="8.0" fill="#444"/><rect stroke="#111" x="314.0" y="473.0" width="8.0" height="8.0" fill="#444"/><rect stroke="#111" x="389.0" y="473.0" width="8.0" height="8.0" fill="#444"/><rect stroke="#111" x="339.0" y="495.0" width="8.0" height="8.0" fill="#444"/><rect stroke="#111" x="364.0" y="495.0" width="8.0" height="8.0" fill="#444"/><rect stroke="#111" x="165.0" y="524.5" width="8.0" height="8.0" fill="#444"/><rect stroke="#111" x="183.0" y="524.5" width="8.0" height="8.0" fill="#444"/><rect stroke="#111" x="72.0" y="473.0" width="8.0" height="8.0" fill="#444"/><rect stroke="#111" x="100.0" y="473.0" width="8.0" height="8.0" fill="#444"/><rect stroke="#111" x="129.0" y="473.0" width="8.0" height="8.0" fill="#444"/><rect stroke="#111" x="417.0" y="473.0" width="8.0" height="8.0" fill="#444"/><rect stroke="#111" x="507.0" y="180.0" width="8.0" height="8.0" fill="#444"/><rect stroke="#111" x="684.0" y="180.0" width="8.0" height="8.0" fill="#444"/><rect stroke="#111" x="759.0" y="180.0" width="8.0" height="8.0" fill="#444"/><rect stroke="#111" x="709.0" y="202.0" width="8.0" height="8.0" fill="#444"/><rect stroke="#111" x="734.0" y="202.0" width="8.0" height="8.0" fill="#444"/><rect stroke="#111" x="535.0" y="231.5" width="8.0" height="8.0" fill="#444"/><rect stroke="#111" x="553.0" y="231.5" width="8.0" height="8.0" fill="#444"/><rect stroke="#111" x="72.0" y="312.0" width="8.0" height="8.0" fill="#444"/><rect stroke="#111" x="256.0" y="312.0" width="8.0" height="8.0" fill="#444"/><rect stroke="#111" x="331.0" y="312.0" width="8.0" height="8.0" fill="#444"/><rect stroke="#111" x="281.0" y="334.0" width="8.0" height="8.0" fill="#444"/><rect stroke="#111" x="306.0" y="334.0" width="8.0" height="8.0" fill="#444"/><rect stroke="#111" x="100.0" y="363.5" width="8.0" height="8.0" fill="#444"/><rect stroke="#111" x="118.0" y="363.5" width="8.0" height="8.0" fill="#444"/><rect stroke="#111" x="787.0" y="180.0" width="8.0" height="8.0" fill="#444"/><rect stroke="#111" x="359.0" y="312.0" width="8.0" height="8.0" fill="#444"/><rect stroke="#111" x="81.0" y="51.0" width="8.0" height="8.0" fill="#444"/><rect stroke="#111" x="12.0" y="42.833333333333336" width="8.0" height="8.0" fill="#444"/><rect stroke="#111" x="12.0" y="59.16666666666667" width="8.0" height="8.0" fill="#444"/><rect stroke="#111" x="280.0" y="51.0" width="8.0" height="8.0" fill="#444"/><rect stroke="#111" x="211.0" y="42.833333333333336" width="8.0" height="8.0" fill="#444"/><rect stroke="#111" x="211.0" y="59.16666666666667" width="8.0" height="8.0" fill="#444"/><rect stroke="#111" x="109.0" y="51.0" width="8.0" height="8.0" fill="#444"/><rect stroke="#111" x="183.0" y="51.0" width="8.0" height="8.0" fill="#444"/><rect stroke="#111" x="146.0" y="78.0" width="8.0" height="8.0" fill="#444"/><rect stroke="#111" x="308.0" y="51.0" width="8.0" height="8.0" fill="#444"/><rect stroke="#111" x="382.0" y="51.0" width="8.0" height="8.0" fill="#444"/><rect stroke="#111" x="345.0" y="78.0" width="8.0" height="8.0" fill="#444"/><rect stroke="#111" x="595.0" y="392.5" width="8.0" height="8.0" fill="#444"/><rect stroke="#111" x="837.0" y="312.5" width="8.0" height="8.0" fill="#444"/><rect stroke="#111" x="912.0" y="312.5" width="8.0" height="8.0" fill="#444"/><rect stroke="#111" x="862.0" y="334.5" width="8.0" height="8.0" fill="#444"/><rect stroke="#111" x="887.0" y="334.5" width="8.0" height="8.0" fill="#444"/><rect stroke="#111" x="688.0" y="364.0" width="8.0" height="8.0" fill="#444"/><rect stroke="#111" x="706.0" y="364.0" width="8.0" height="8.0" fill="#444"/><rect stroke="#111" x="940.0" y="312.5" width="8.0" height="8.0" fill="#444"/><rect stroke="#111" x="595.0" y="312.5" width="8.0" height="8.0" fill="#444"/><rect stroke="#111" x="623.0" y="312.5" width="8.0" height="8.0" fill="#444"/><rect stroke="#111" x="652.0" y="312.5" width="8.0" height="8.0" fill="#444"/><rect stroke="#111" x="470.0" y="48.0" width="8.0" height="8.0" fill="#444"/><rect stroke="#111" x="647.0" y="48.0" width="8.0" height="8.0" fill="#444"/><rect stroke="#111" x="722.0" y="48.0" width="8.0" height="8.0" fill="#444"/><rect stroke="#111" x="672.0" y="70.0" width="8.0" height="8.0" fill="#444"/><rect stroke="#111" x="697.0" y="70.0" width="8.0" height="8.0" fill="#444"/><rect stroke="#111" x="498.0" y="99.5" width="8.0" height="8.0" fill="#444"/><rect stroke="#111" x="516.0" y="99.5" width="8.0" height="8.0" fill="#444"/><rect stroke="#111" x="750.0" y="48.0" width="8.0" height="8.0" fill="#444"/><rect stroke="#111" x="72.0" y="180.0" width="8.0" height="8.0" fill="#444"/><rect stroke="#111" x="256.0" y="180.0" width="8.0" height="8.0" fill="#444"/><rect stroke="#111" x="331.0" y="180.0" width="8.0" height="8.0" fill="#444"/><rect stroke="#111" x="281.0" y="202.0" width="8.0" height="8.0" fill="#444"/><rect stroke="#111" x="306.0" y="202.0" width="8.0" height="8.0" fill="#444"/><rect stroke="#111" x="100.0" y="231.5" width="8.0" height="8.0" fill="#444"/><rect stroke="#111" x="118.0" y="231.5" width="8.0" height="8.0" fill="#444"/><rect stroke="#111" x="359.0" y="180.0" width="8.0" height="8.0" fill="#444"/></g><g id="labels"><text dominant-baseline="middle" text-anchor="middle" font-size="12" fill="#111" x="841.0" y="444.0">TimedPlotter</text><text dominant-baseline="middle" text-anchor="middle" font-size="12" fill="#111" x="633.5" y="602.8333333333334">DiscreteClock</text><text dominant-baseline="middle" text-anchor="middle" font-size="12" fill="#111" x="719.0" y="854.0">Scale</text><text dominant-baseline="middle" text-anchor="middle" font-size="12" fill="#111" x="722.5" y="525.0">Scale2</text><text dominant-baseline="middle" text-anchor="middle" font-size="12" fill="#111" x="722.0" y="444.0">Ramp</text><text dominant-baseline="middle" text-anchor="middle" font-size="12" fill="#111" x="725.5" y="773.0">Ramp2</text><text dominant-baseline="middle" text-anchor="middle" font-size="12" fill="#111" x="725.5" y="692.0">Ramp3</text><text dominant-baseline="middle" text-anchor="middle" font-size="12" fill="#111" x="725.5" y="611.0">Ramp4</text><text dominant-baseline="middle" text-anchor="middle" font-size="12" fill="#111" x="21.0" y="524.5">in1</text><text dominant-baseline="middle" text-anchor="middle" font-size="12" fill="#111" x="340.5" y="446.5">Server</text><text dominant-baseline="middle" text-anchor="middle" font-size="12" fill="#111" x="233.5" y="495.5">RecordDisassembler</text><text dominant-baseline="middle" text-anchor="middle" font-size="12" fill="#111" x="21.0" y="444.5">in2</text><text dominant-baseline="middle" text-anchor="middle" font-size="12" fill="#111" x="126.5" y="444.0">Merge</text><text dominant-baseline="middle" text-anchor="middle" font-size="12" fill="#111" x="495.0" y="444.5">ExecutionResponsePort</text><text dominant-baseline="middle" text-anchor="middle" font-size="12" fill="#111" x="456.0" y="151.5">in1</text><text dominant-baseline="middle" text-anchor="middle" font-size="12" fill="#111" x="710.5" y="153.5">Server</text><text dominant-baseline="middle" text-anchor="middle" font-size="12" fill="#111" x="603.5" y="202.5">RecordDisassembler</text><text dominant-baseline="middle" text-anchor="middle" font-size="12" fill="#111" x="21.0" y="283.5">in2</text><text dominant-baseline="middle" text-anchor="middle" font-size="12" fill="#111" x="286.0" y="285.5">Server2</text><text dominant-baseline="middle" text-anchor="middle" font-size="12" fill="#111" x="172.0" y="334.5">RecordDisassembler2</text><text dominant-baseline="middle" text-anchor="middle" font-size="12" fill="#111" x="865.0" y="151.5">ExecutionResponsePort</text><text dominant-baseline="middle" text-anchor="middle" font-size="12" fill="#111" x="441.0" y="283.5">ExecutionResponsePort2</text><text dominant-baseline="middle" text-anchor="middle" font-size="12" fill="#111" x="41.0" y="22.0">Ramp3</text><text dominant-baseline="middle" text-anchor="middle" font-size="12" fill="#111" x="240.0" y="22.0">Ramp4</text><text dominant-baseline="middle" text-anchor="middle" font-size="12" fill="#111" x="147.5" y="19.5">TimeDelay</text><text dominant-baseline="middle" text-anchor="middle" font-size="12" fill="#111" x="350.5" y="19.5">TimeDelay2</text><text dominant-baseline="middle" text-anchor="middle" font-size="12" fill="#111" x="544.0" y="364.0">in1</text><text dominant-baseline="middle" text-anchor="middle" font-size="12" fill="#111" x="863.5" y="286.0">Server</text><text dominant-baseline="middle" text-anchor="middle" font-size="12" fill="#111" x="756.5" y="335.0">RecordDisassembler</text><text dominant-baseline="middle" text-anchor="middle" font-size="12" fill="#111" x="957.0" y="284.0">out</text><text dominant-baseline="middle" text-anchor="middle" font-size="12" fill="#111" x="544.0" y="284.0">in2</text><text dominant-baseline="middle" text-anchor="middle" font-size="12" fill="#111" x="649.5" y="283.5">Merge</text><text dominant-baseline="middle" text-anchor="middle" font-size="12" fill="#111" x="419.0" y="19.5">in1</text><text dominant-baseline="middle" text-anchor="middle" font-size="12" fill="#111" x="673.5" y="21.5">Server</text><text dominant-baseline="middle" text-anchor="middle" font-size="12" fill="#111" x="566.5" y="70.5">RecordDisassembler</text><text dominant-baseline="middle" text-anchor="middle" font-size="12" fill="#111" x="767.0" y="19.5">out</text><text dominant-baseline="middle" text-anchor="middle" font-size="12" fill="#111" x="21.0" y="151.5">in2</text><text dominant-baseline="middle" text-anchor="middle" font-size="12" fill="#111" x="286.0" y="153.5">Server2</text><text dominant-baseline="middle" text-anchor="middle" font-size="12" fill="#111" x="172.0" y="202.5">RecordDisassembler2</text><text dominant-baseline="middle" text-anchor="middle" font-size="12" fill="#111" x="380.0" y="151.5">out2</text></g></svg>