<svg xmlns="http://www.w3.org/2000/svg" width="288.0" height="177.4"><defs><marker id="arrow" refX="5" refY="5" markerUnits="strokeWidth" markerWidth="10" markerHeight="10" orient="auto"><path d="M 0 0 L 10 5 L 0 10 L 2 5 Z " fill="#222"/></marker><marker id="arrow-open" refX="10" refY="5" markerUnits="strokeWidth" markerWidth="10" markerHeight="10" orient="auto"><path stroke="#222" stroke-width="1.5" d="M 0 0 L 10 5 L 0 10" fill="none"/></marker><marker id="triangle-hollow" refX="10" refY="6" markerUnits="strokeWidth" markerWidth="12" markerHeight="12" orient="auto"><path stroke="#222" stroke-width="1.5" d="M 0 0 L 10 6 L 0 12 Z " fill="white"/></marker></defs><g id="nodes"><g id="bgp_nuk_1" class="node"><rect stroke="black" x="226.0" y="88.6" width="50.0" height="50.0" rx="2" fill="lightblue"/><g class="labels"><text dominant-baseline="middle" text-anchor="middle" font-size="6.0" fill="#111" x="251.0" y="113.6">BGP-NUK-1</text><text dominant-baseline="middle" text-anchor="middle" font-size="4.0" fill="#111" x="251.0" y="113.6">ASR9k</text></g><g class="ports"><g id="bgp_nuk_1_0" class="port"><rect stroke="#111" x="222.0" y="125.39999999999999" width="4.0" height="4.0" fill="#444"/><g class="labels"><text dominant-baseline="middle" text-anchor="start" font-size="4.0" fill="#111" x="227.0" y="127.39999999999999">Te0/0/0/0</text></g></g><g id="bgp_nuk_1_1" class="port"><rect stroke="#111" x="226.0" y="116.19999999999999" width="0.0" height="0.0" fill="#444"/><g class="labels"><text dominant-baseline="middle" text-anchor="start" font-size="4.0" fill="#111" x="227.0" y="116.19999999999999">Te0/0/0/1</text></g></g><g id="bgp_nuk_1_2" class="port"><rect stroke="#111" x="226.0" y="107.0" width="0.0" height="0.0" fill="#444"/><g class="labels"><text dominant-baseline="middle" text-anchor="start" font-size="4.0" fill="#111" x="227.0" y="107.0">Te0/0/0/2</text></g></g><g id="bgp_nuk_1_3" class="port"><rect stroke="#111" x="226.0" y="97.8" width="0.0" height="0.0" fill="#444"/><g class="labels"><text dominant-baseline="middle" text-anchor="start" font-size="4.0" fill="#111" x="227.0" y="97.8">Te0/0/0/3</text></g></g></g></g><g id="bgp_nuk_2" class="node"><rect stroke="black" x="12.0" y="27.0" width="50.0" height="50.0" rx="2" fill="lightblue"/><g class="labels"><text dominant-baseline="middle" text-anchor="middle" font-size="6.0" fill="#111" x="37.0" y="52.0">BGP-NUK-2</text></g><g class="ports"><g id="bgp_nuk_2_0" class="port"><rect stroke="#111" x="62.0" y="67.0" width="0.0" height="0.0" fill="#444"/><g class="labels"><text dominant-baseline="middle" text-anchor="end" font-size="4.0" fill="#111" x="61.0" y="67.0">Te0/0/0/0</text></g></g><g id="bgp_nuk_2_1" class="port"><rect stroke="#111" x="62.0" y="57.0" width="0.0" height="0.0" fill="#444"/><g class="labels"><text dominant-baseline="middle" text-anchor="end" font-size="4.0" fill="#111" x="61.0" y="57.0">Te0/0/0/1</text></g></g><g id="bgp_nuk_2_2" class="port"><rect stroke="#111" x="62.0" y="47.0" width="0.0" height="0.0" fill="#444"/><g class="labels"><text dominant-baseline="middle" text-anchor="end" font-size="4.0" fill="#111" x="61.0" y="47.0">Te0/0/0/2</text></g></g><g id="bgp_nuk_2_3" class="port"><rect stroke="#111" x="62.0" y="37.0" width="0.0" height="0.0" fill="#444"/><g class="labels"><text dominant-baseline="middle" text-anchor="end" font-size="4.0" fill="#111" x="61.0" y="37.0">Te0/0/0/3</text></g></g></g></g><g id="pe_nuk_1" class="node"><rect stroke="black" x="122.0" y="82.0" width="50.0" height="50.0" rx="2" fill="lightblue"/><g class="labels"><text dominant-baseline="middle" text-anchor="middle" font-size="6.0" fill="#111" x="147.0" y="107.0">PE-NUK-1</text></g><g class="ports"><g id="pe_nuk_1_0" class="port"><rect stroke="#111" x="172.0" y="107.0" width="0.0" height="0.0" fill="#444"/><g class="labels"><text dominant-baseline="middle" text-anchor="end" font-size="4.0" fill="#111" x="171.0" y="107.0">Te0/0/0/0</text></g></g><g id="pe_nuk_1_1" class="port"><rect stroke="#111" x="122.0" y="107.0" width="0.0" height="0.0" fill="#444"/><g class="labels"><text dominant-baseline="middle" text-anchor="start" font-size="4.0" fill="#111" x="123.0" y="107.0">Te0/0/0/1</text></g></g></g></g><g id="pe_nuk_2" class="node"><rect stroke="black" x="122.0" y="12.0" width="50.0" height="50.0" rx="2" fill="lightblue"/><g class="labels"><text dominant-baseline="middle" text-anchor="middle" font-size="6.0" fill="#111" x="147.0" y="37.0">PE-NUK-2</text></g><g class="ports"><g id="pe_nuk_2_0" class="port"><rect stroke="#111" x="172.0" y="37.0" width="0.0" height="0.0" fill="#444"/><g class="labels"><text dominant-baseline="middle" text-anchor="end" font-size="4.0" fill="#111" x="171.0" y="37.0">Te0/0/0/0</text></g></g><g id="pe_nuk_2_1" class="port"><rect stroke="#111" x="122.0" y="37.0" width="0.0" height="0.0" fill="#444"/><g class="labels"><text dominant-baseline="middle" text-anchor="start" font-size="4.0" fill="#111" x="123.0" y="37.0">Te0/0/0/1</text></g></g></g></g></g><g id="edges"><g id="E1" class="edge"><polyline stroke="#222" stroke-width="1.0" points="222.0 127.39999999999999 212.0 127.39999999999999 212.0 163.9 72.0 163.9 72.0 67.0 62.0 67.0" fill="none"/><circle stroke="none" cx="212.0" cy="127.39999999999999" r="2" fill="#888"/><circle stroke="none" cx="212.0" cy="163.9" r="2" fill="#888"/><circle stroke="none" cx="72.0" cy="163.9" r="2" fill="#888"/><circle stroke="none" cx="72.0" cy="67.0" r="2" fill="#888"/><g class="labels"><text dominant-baseline="middle" text-anchor="middle" font-size="4.0" fill="#111" x="147.0" y="163.4">uplink</text></g></g><g id="E2" class="edge"><polyline stroke="#222" stroke-width="0.7" points="226.0 116.19999999999999 202.0 116.19999999999999 202.0 152.2 82.0 152.2 82.0 57.0 62.0 57.0" fill="none"/><circle stroke="none" cx="202.0" cy="116.19999999999999" r="2" fill="#888"/><circle stroke="none" cx="202.0" cy="152.2" r="2" fill="#888"/><circle stroke="none" cx="82.0" cy="152.2" r="2" fill="#888"/><circle stroke="none" cx="82.0" cy="57.0" r="2" fill="#888"/><g class="labels"><text dominant-baseline="middle" text-anchor="middle" font-size="4.0" fill="#111" x="147.0" y="152.0">peer1</text></g></g><g id="E3" class="edge"><polyline stroke="#222" stroke-width="0.7" points="226.0 107.0 172.0 107.0" fill="none"/><g class="labels"><text dominant-baseline="middle" text-anchor="middle" font-size="4.0" fill="#111" x="192.0" y="106.8">peer2</text></g></g><g id="E4" class="edge"><polyline stroke="#222" stroke-width="0.7" points="226.0 97.8 202.0 97.8 202.0 37.0 172.0 37.0" fill="none"/><circle stroke="none" cx="202.0" cy="97.8" r="2" fill="#888"/><circle stroke="none" cx="202.0" cy="37.0" r="2" fill="#888"/><g class="labels"><text dominant-baseline="middle" text-anchor="middle" font-size="4.0" fill="#111" x="192.0" y="36.8">peer3</text></g></g><g id="E5" class="edge"><polyline stroke="#222" stroke-width="0.7" points="62.0 47.0 92.0 47.0 92.0 107.0 122.0 107.0" fill="none"/><circle stroke="none" cx="92.0" cy="47.0" r="2" fill="#888"/><circle stroke="none" cx="92.0" cy="107.0" r="2" fill="#888"/><g class="labels"><text dominant-baseline="middle" text-anchor="middle" font-size="4.0" fill="#111" x="102.0" y="106.8">peer4</text></g></g><g id="E6" class="edge"><polyline stroke="#222" stroke-width="0.7" points="62.0 37.0 122.0 37.0" fill="none"/><g class="labels"><text dominant-baseline="middle" text-anchor="middle" font-size="4.0" fill="#111" x="102.0" y="36.8">peer</text></g></g></g></svg>